<mxfile host="www.draw.io" modified="2020-02-07T17:46:52.257Z" agent="Mozilla/5.0 (Windows NT 10.0; Win64; x64; rv:68.0) Gecko/20100101 Firefox/68.0" etag="7rbmySJLUrmRj_8mLmgR" version="12.6.6" type="github">
  <diagram id="CLRaHryyYa0xOvTVhCor" name="Page-1">
    <mxGraphModel dx="1646" dy="1038" grid="1" gridSize="10" guides="1" tooltips="1" connect="1" arrows="1" fold="1" page="1" pageScale="1" pageWidth="850" pageHeight="1100" math="0" shadow="0">
      <root>
        <mxCell id="0"/>
        <mxCell id="1" parent="0"/>
        <mxCell id="xvll8Nh_N9pdd9aSw5_w-8" value="-" style="group" parent="1" vertex="1" connectable="0">
          <mxGeometry x="470" y="40" width="220" height="250" as="geometry"/>
        </mxCell>
        <mxCell id="xvll8Nh_N9pdd9aSw5_w-6" value="Shipment" style="text;html=1;align=center;verticalAlign=middle;whiteSpace=wrap;rounded=0;strokeColor=#000000;fillColor=#ffffff;" parent="xvll8Nh_N9pdd9aSw5_w-8" vertex="1">
          <mxGeometry width="219.99999999999997" height="17.156862745098035" as="geometry"/>
        </mxCell>
        <mxCell id="xvll8Nh_N9pdd9aSw5_w-7" value="&amp;nbsp; -&amp;nbsp; String: supplierName&lt;br&gt;&amp;nbsp; -&amp;nbsp; Supplier: supplierRef&lt;br&gt;&amp;nbsp; -&amp;nbsp; ItemList: shippedItems" style="text;html=1;align=left;verticalAlign=middle;whiteSpace=wrap;rounded=0;strokeColor=#000000;fillColor=#ffffff;" parent="xvll8Nh_N9pdd9aSw5_w-8" vertex="1">
          <mxGeometry y="17.154545454545456" width="219.99999999999997" height="232.84545454545452" as="geometry"/>
        </mxCell>
      </root>
    </mxGraphModel>
  </diagram>
</mxfile>
